<?xml version="1.0" encoding="utf-8"?>
<!-- Generator: Adobe Illustrator 26.0.3, SVG Export Plug-In . SVG Version: 6.00 Build 0)  -->
<svg version="1.0" id="katman_1" xmlns="http://www.w3.org/2000/svg" xmlns:xlink="http://www.w3.org/1999/xlink" x="0px" y="0px"
	 viewBox="0 0 600 450" style="enable-background:new 0 0 600 450;" xml:space="preserve">
<style type="text/css">
	.st0{clip-path:url(#SVGID_00000026876212283721197560000006090274200785155515_);}
	.st1{fill:#262F60;}
</style>
<g>
	<defs>
		<rect id="SVGID_1_" x="96" y="141.7" width="408.2" height="167.4"/>
	</defs>
	<clipPath id="SVGID_00000135680737610806161890000015576952099215379367_">
		<use xlink:href="#SVGID_1_"  style="overflow:visible;"/>
	</clipPath>
	<g style="clip-path:url(#SVGID_00000135680737610806161890000015576952099215379367_);">
		<path class="st1" d="M252,228.6v20.6c2.9,4.5,8,7.5,14.6,7.5c9.8,0,16.7-7.4,16.7-17.6c0-10.1-7.2-17.4-16.9-17.4
			C260.1,221.6,255.1,224.3,252,228.6z M269,267.3c-6.8,0-12.7-2-17.2-6.1v5h-12.7v-82.6H252v34.4c4.5-4.9,10.7-7.2,18-7.2
			c14.5,0,26.2,11.5,26.2,28.3C296.2,255.3,284,267.3,269,267.3z"/>
		<path class="st1" d="M317.8,183.6h-12.9v82.6h12.9V183.6z"/>
		<path class="st1" d="M339.5,232.4h26.9c-1.6-6.6-6.2-11.3-13.3-11.3C346.5,221.1,341.3,225.2,339.5,232.4z M356.7,267.3
			c-17.7,0-30.4-11.4-30.4-28.3c0-16.7,12.7-28.3,26.8-28.3c16.6,0,26.1,11.9,26.1,28.5v2.7h-40.1c1.2,8.9,7.6,14.7,18.5,14.7
			c7.1,0,15.2-2.8,20.1-6.7V261C373.1,264.5,365,267.3,356.7,267.3z"/>
		<path class="st1" d="M401.3,228.1v38h-12.9v-54.3h12.7v6c3.8-4.4,9.8-7.2,17.1-7.2c13.3,0,20.8,8.9,20.8,21.9v33.6H426V234
			c0-7-4.2-12.1-11.4-12.1C408.5,221.9,404.1,224.4,401.3,228.1z"/>
		<path class="st1" d="M477,256.5c6.3,0,11.3-2.7,14.3-7v-20.6c-2.9-4.5-8-7.5-14.6-7.5c-9.8,0-16.7,7.4-16.7,17.5
			C460.1,249.2,467.3,256.5,477,256.5z M491.6,259.9c-4.4,4.9-10.6,7.4-17.7,7.4c-14.7,0-26.7-11.4-26.7-28
			c0-16.4,12.2-28.5,27.2-28.5c6.7,0,12.5,1.9,16.9,6v-33.1h12.9v82.6h-12.7V259.9z"/>
		<path class="st1" d="M160.6,207.1l5.6-4.2c12-8.8,11.5-19.4,9.4-25.8c-2.3-7.2-9-14.9-20.6-14.9H96v-20.4h59.1
			c18.5,0,34.2,11.4,39.9,29.1c5.7,17.7-0.3,36.1-15.3,47l-2.3,1.6L160.6,207.1z M169.3,225.4l10.4,7.6c15,10.9,21,29.4,15.3,47
			c-5.7,17.7-21.4,29.1-39.9,29.1H96v-20.4h59c11.6,0,18.2-7.7,20.6-15c2.3-7.2,1.5-17.4-7.9-24.2L151.9,238l-17.3-12.6l-18.2-13.2
			v26.4l9.8-7.1l17.4,12.6l-31.4,22.8c-3.1,2.3-7.2,2.6-10.6,0.8c-3.4-1.8-5.6-5.3-5.6-9.1v-66.4c0-3.8,2.1-7.3,5.6-9.1
			c3.4-1.7,7.5-1.4,10.6,0.8l39.7,28.9L169.3,225.4z"/>
	</g>
</g>
</svg>
